<svg xmlns="http://www.w3.org/2000/svg" version="1.1" viewBox="0 0 500 500">
  <defs>
    
    <clipPath id="clippath">
      <path d="M298.26,191.84v-84.5c0-11.02-8.93-19.95-19.95-19.95s-19.95,8.93-19.95,19.95v84.5c0,6.3,2.98,11.85,7.53,15.5-4.56,3.66-7.53,9.2-7.53,15.5v169.81c0,11.02,8.93,19.95,19.95,19.95s19.95-8.93,19.95-19.95v-169.81c0-6.3-2.98-11.85-7.53-15.5,4.56-3.66,7.53-9.2,7.53-15.5Z" fill="#f0eeea" stroke="#565655" stroke-miterlimit="10" stroke-width="2.07px"/>
    </clipPath>
    <clipPath id="clippath-1">
      <path d="M241.64,191.84v-84.5c0-11.02-8.93-19.95-19.95-19.95s-19.95,8.93-19.95,19.95v84.5c0,6.3,2.98,11.85,7.53,15.5-4.56,3.66-7.53,9.2-7.53,15.5v169.81c0,11.02,8.93,19.95,19.95,19.95s19.95-8.93,19.95-19.95v-169.81c0-6.3-2.98-11.85-7.53-15.5,4.56-3.66,7.53-9.2,7.53-15.5Z" fill="#f0eeea" stroke="#565655" stroke-miterlimit="10" stroke-width="2.07px"/>
    </clipPath>
  </defs>
  
  <g>
    <g id="Layer_2">
      <g>
        <g>
          <path d="M298.26,191.84v-84.5c0-11.02-8.93-19.95-19.95-19.95s-19.95,8.93-19.95,19.95v84.5c0,6.3,2.98,11.85,7.53,15.5-4.56,3.66-7.53,9.2-7.53,15.5v169.81c0,11.02,8.93,19.95,19.95,19.95s19.95-8.93,19.95-19.95v-169.81c0-6.3-2.98-11.85-7.53-15.5,4.56-3.66,7.53-9.2,7.53-15.5Z" fill="#f0eeea"/>
          <g clip-path="url(#clippath)">
            <rect x="234.56" y="288.44" width="74.4" height="42.02" fill="#dc1a18"/>
          </g>
          <path d="M298.26,191.84v-84.5c0-11.02-8.93-19.95-19.95-19.95s-19.95,8.93-19.95,19.95v84.5c0,6.3,2.98,11.85,7.53,15.5-4.56,3.66-7.53,9.2-7.53,15.5v169.81c0,11.02,8.93,19.95,19.95,19.95s19.95-8.93,19.95-19.95v-169.81c0-6.3-2.98-11.85-7.53-15.5,4.56-3.66,7.53-9.2,7.53-15.5Z" stroke="#565655" stroke-miterlimit="10" stroke-width="2.07px" fill="none"/>
        </g>
        <g>
          <path d="M241.64,191.84v-84.5c0-11.02-8.93-19.95-19.95-19.95s-19.95,8.93-19.95,19.95v84.5c0,6.3,2.98,11.85,7.53,15.5-4.56,3.66-7.53,9.2-7.53,15.5v169.81c0,11.02,8.93,19.95,19.95,19.95s19.95-8.93,19.95-19.95v-169.81c0-6.3-2.98-11.85-7.53-15.5,4.56-3.66,7.53-9.2,7.53-15.5Z" fill="#f0eeea"/>
          <g clip-path="url(#clippath-1)">
            <rect x="184.49" y="288.44" width="74.4" height="42.02" fill="#70a3b1"/>
          </g>
          <path d="M241.64,191.84v-84.5c0-11.02-8.93-19.95-19.95-19.95s-19.95,8.93-19.95,19.95v84.5c0,6.3,2.98,11.85,7.53,15.5-4.56,3.66-7.53,9.2-7.53,15.5v169.81c0,11.02,8.93,19.95,19.95,19.95s19.95-8.93,19.95-19.95v-169.81c0-6.3-2.98-11.85-7.53-15.5,4.56-3.66,7.53-9.2,7.53-15.5Z" stroke="#565655" stroke-miterlimit="10" stroke-width="2.07px" fill="none"/>
        </g>
      </g>
    </g>
  </g>
</svg>