<svg xmlns="http://www.w3.org/2000/svg" version="1.1" xmlns:xlink="http://www.w3.org/1999/xlink" viewBox="0 0 500 500">
  
  <defs>
    
    <clipPath id="clippath-1">
      <rect x="89.874" y="89.874" width="320.252" height="320.252" fill="none" stroke="#000" stroke-miterlimit="10" stroke-width="4.186px"/>
    </clipPath>
  </defs>
  <g style="isolation: isolate">
    <g id="RNASeq0003">
      <g>
        <g clip-path="url(#clippath-1)">
          <g>
            <rect x="90.326" y="-178.503" width="40.204" height="26.934" fill="#448ec1"/>
            <rect x="130.53" y="-178.503" width="40.204" height="26.934" fill="#8ec2dc"/>
            <rect x="170.292" y="-178.503" width="40.204" height="26.934" fill="#e1ecf2"/>
            <rect x="209.745" y="-178.503" width="40.204" height="26.934" fill="#edf0f1"/>
            <rect x="249.765" y="-178.505" width="40.208" height="26.937" fill="#b32631"/>
            <rect x="289.786" y="-178.505" width="40.203" height="26.937" fill="#f9e6db"/>
            <rect x="329.806" y="-178.503" width="40.204" height="26.934" fill="#efa082"/>
            <rect x="369.97" y="-178.586" width="40.204" height="26.934" fill="#e1ecf2"/>
            <rect x="90.326" y="-151.79" width="40.204" height="26.934" fill="#053061"/>
            <rect x="130.53" y="-151.79" width="40.204" height="26.934" fill="#f5b295"/>
            <rect x="170.292" y="-151.79" width="40.204" height="26.934" fill="#f5eeea"/>
            <rect x="209.745" y="-151.79" width="40.204" height="26.934" fill="#ebeff1"/>
            <rect x="249.765" y="-151.79" width="40.204" height="26.934" fill="#f9e6db"/>
            <rect x="289.785" y="-151.79" width="40.204" height="26.934" fill="#f9e6db"/>
            <rect x="329.806" y="-151.79" width="40.204" height="26.934" fill="#f5efec"/>
            <rect x="369.97" y="-151.873" width="40.204" height="26.934" fill="#ee9a7d"/>
            <rect x="90.326" y="-125.022" width="40.204" height="26.934" fill="#a1cce2"/>
            <rect x="130.53" y="-125.022" width="40.204" height="26.934" fill="#d8e8f1"/>
            <rect x="170.292" y="-125.022" width="40.204" height="26.934" fill="#357eb8"/>
            <rect x="209.745" y="-125.022" width="40.204" height="26.934" fill="#f2efee"/>
            <rect x="249.765" y="-125.022" width="40.204" height="26.934" fill="#e2ecf2"/>
            <rect x="289.785" y="-125.022" width="40.204" height="26.934" fill="#d86654"/>
            <rect x="329.806" y="-125.022" width="40.204" height="26.934" fill="#d86654"/>
            <rect x="369.97" y="-125.105" width="40.204" height="26.934" fill="#fae2d4"/>
            <rect x="90.326" y="-98.144" width="40.204" height="26.934" fill="#9ecae1"/>
            <rect x="130.53" y="-98.144" width="40.204" height="26.934" fill="#6bacd0"/>
            <rect x="170.292" y="-98.144" width="40.204" height="26.934" fill="#ffeddd"/>
            <rect x="209.745" y="-98.144" width="40.204" height="26.934" fill="#4794c6"/>
            <rect x="249.765" y="-98.145" width="40.208" height="26.937" fill="#f8c0a6"/>
            <rect x="289.786" y="-98.145" width="40.203" height="26.937" fill="#f1a487"/>
            <rect x="329.806" y="-98.144" width="40.204" height="26.934" fill="#d86654"/>
            <rect x="369.97" y="-98.227" width="40.204" height="26.934" fill="#f7ebe6"/>
            <rect x="90.326" y="-71.431" width="40.204" height="26.934" fill="#a7cfe4"/>
            <rect x="130.53" y="-71.431" width="40.204" height="26.934" fill="#a7cfe4"/>
            <rect x="170.292" y="-71.431" width="40.204" height="26.934" fill="#eceff1"/>
            <rect x="209.745" y="-71.431" width="40.204" height="26.934" fill="#529ac7"/>
            <rect x="249.765" y="-71.431" width="40.204" height="26.934" fill="#a4192b"/>
            <rect x="289.785" y="-71.431" width="40.204" height="26.934" fill="#f9e8de"/>
            <rect x="329.806" y="-71.431" width="40.204" height="26.934" fill="#f8c0a6"/>
            <rect x="369.97" y="-71.514" width="40.204" height="26.934" fill="#f7ece6"/>
            <rect x="90.326" y="-44.663" width="40.204" height="26.934" fill="#79b5d5"/>
            <rect x="130.53" y="-44.663" width="40.204" height="26.934" fill="#eff0f0"/>
            <rect x="170.292" y="-44.663" width="40.204" height="26.934" fill="#2c73b1"/>
            <rect x="209.745" y="-44.663" width="40.204" height="26.934" fill="#dfebf2"/>
            <rect x="249.765" y="-44.663" width="40.204" height="26.934" fill="#f8bea1"/>
            <rect x="289.785" y="-44.663" width="40.204" height="26.934" fill="#e07760"/>
            <rect x="329.806" y="-44.663" width="40.204" height="26.934" fill="#ef9d7f"/>
            <rect x="369.97" y="-44.745" width="40.204" height="26.934" fill="#f9e9df"/>
            <rect x="90.326" y="-17.922" width="40.204" height="26.934" fill="#78b4d5"/>
            <rect x="130.53" y="-17.922" width="40.204" height="26.934" fill="#cae1ee"/>
            <rect x="170.292" y="-17.922" width="40.204" height="26.934" fill="#edeff1"/>
            <rect x="209.745" y="-17.922" width="40.204" height="26.934" fill="#4d97c5"/>
            <rect x="249.765" y="-17.924" width="40.208" height="26.937" fill="#d0544a"/>
            <rect x="289.786" y="-17.924" width="40.203" height="26.937" fill="#e48167"/>
            <rect x="329.806" y="-17.922" width="40.204" height="26.934" fill="#facbb4"/>
            <rect x="369.97" y="-18.005" width="40.204" height="26.934" fill="#e6eef2"/>
            <rect x="90.326" y="8.791" width="40.204" height="26.934" fill="#e9eff2"/>
            <rect x="130.53" y="8.791" width="40.204" height="26.934" fill="#3681b9"/>
            <rect x="170.292" y="8.791" width="40.204" height="26.934" fill="#fbd8c6"/>
            <rect x="209.745" y="8.791" width="40.204" height="26.934" fill="#5fa8d1"/>
            <rect x="249.765" y="8.791" width="40.204" height="26.934" fill="#c23b3c"/>
            <rect x="289.785" y="8.791" width="40.204" height="26.934" fill="#fae1d4"/>
            <rect x="329.806" y="8.791" width="40.204" height="26.934" fill="#fae1d4"/>
            <rect x="369.97" y="8.708" width="40.204" height="26.934" fill="#f9e9e0"/>
            <rect x="90.326" y="35.559" width="40.204" height="26.934" fill="#7bb6d6"/>
            <rect x="130.53" y="35.559" width="40.204" height="26.934" fill="#4f98c6"/>
            <rect x="170.292" y="35.559" width="40.204" height="26.934" fill="#f8efea"/>
            <rect x="209.745" y="35.559" width="40.204" height="26.934" fill="#a7cfe3"/>
            <rect x="249.765" y="35.559" width="40.204" height="26.934" fill="#fbdece"/>
            <rect x="289.785" y="35.559" width="40.204" height="26.934" fill="#d66151"/>
            <rect x="329.806" y="35.559" width="40.204" height="26.934" fill="#f5eee9"/>
            <rect x="369.97" y="35.476" width="40.204" height="26.934" fill="#df765f"/>
            <rect x="90.326" y="62.437" width="40.204" height="26.934" fill="#8ec1dc"/>
            <rect x="130.53" y="62.437" width="40.204" height="26.934" fill="#2d75b2"/>
            <rect x="170.292" y="62.437" width="40.204" height="26.934" fill="#c8e0ed"/>
            <rect x="209.745" y="62.437" width="40.204" height="26.934" fill="#eff0f0"/>
            <rect x="249.765" y="62.436" width="40.208" height="26.937" fill="#fad8c3"/>
            <rect x="289.786" y="62.436" width="40.203" height="26.937" fill="#e0755f"/>
            <rect x="329.806" y="62.437" width="40.204" height="26.934" fill="#fbe0d0"/>
            <rect x="369.97" y="62.355" width="40.204" height="26.934" fill="#e6876d"/>
            <rect x="90.326" y="89.15" width="40.204" height="26.934" fill="#f4f0ed"/>
            <rect x="130.53" y="89.15" width="40.204" height="26.934" fill="#d76151"/>
            <rect x="249.765" y="89.15" width="40.204" height="26.934" fill="#fae0d1"/>
            <rect x="289.785" y="89.15" width="40.204" height="26.934" fill="#f8e9e0"/>
            <rect x="329.806" y="89.15" width="40.204" height="26.934" fill="#f8ebe1"/>
            <rect x="369.97" y="89.068" width="40.204" height="26.934" fill="#f5b497"/>
            <rect x="130.53" y="115.918" width="40.204" height="26.934" fill="#f7ebe4"/>
            <rect x="170.292" y="115.918" width="40.204" height="26.934" fill="#f0f0f0"/>
            <rect x="289.785" y="115.918" width="40.204" height="26.934" fill="#e07760"/>
            <rect x="329.806" y="115.918" width="40.204" height="26.934" fill="#e7876d"/>
            <rect x="369.97" y="115.836" width="40.204" height="26.934" fill="#f5b396"/>
            <rect x="130.53" y="142.825" width="40.204" height="26.934" fill="#fad5c2"/>
            <rect x="249.765" y="142.823" width="40.208" height="26.937" fill="#e6856b"/>
            <rect x="289.786" y="142.823" width="40.203" height="26.937" fill="#f7ba9e"/>
            <rect x="369.97" y="142.742" width="40.204" height="26.934" fill="#ed987c"/>
            <rect x="249.765" y="169.537" width="40.204" height="26.934" fill="#d86251"/>
            <rect x="289.785" y="169.537" width="40.204" height="26.934" fill="#f6eee8"/>
            <rect x="329.806" y="169.537" width="40.204" height="26.934" fill="#f7eee7"/>
            <rect x="369.97" y="169.455" width="40.204" height="26.934" fill="#cc4e45"/>
            <rect x="130.53" y="196.306" width="40.204" height="26.934" fill="#eaeef0"/>
            <rect x="209.745" y="196.306" width="40.204" height="26.934" fill="#f2f0ed"/>
            <rect x="249.765" y="196.306" width="40.204" height="26.934" fill="#c84842"/>
            <rect x="289.785" y="196.306" width="40.204" height="26.934" fill="#ed987c"/>
            <rect x="369.97" y="196.223" width="40.204" height="26.934" fill="#faceb7"/>
            <rect x="90.326" y="223.184" width="40.204" height="26.934" fill="#fde1d0"/>
            <rect x="170.292" y="223.184" width="40.204" height="26.934" fill="#f9c4aa"/>
            <rect x="249.765" y="223.183" width="40.208" height="26.937" fill="#cb4b44"/>
            <rect x="289.786" y="223.183" width="40.203" height="26.937" fill="#fad3be"/>
            <rect x="369.97" y="223.101" width="40.204" height="26.934" fill="#f5efea"/>
            <rect x="170.292" y="249.897" width="40.204" height="26.934" fill="#e0ecf2"/>
            <rect x="249.765" y="249.897" width="40.204" height="26.934" fill="#ee9678"/>
            <rect x="329.806" y="249.897" width="40.204" height="26.934" fill="#e58167"/>
            <rect x="369.97" y="249.814" width="40.204" height="26.934" fill="#ec9779"/>
            <rect x="90.326" y="276.665" width="40.204" height="26.934" fill="#f7ece6"/>
            <rect x="130.53" y="276.665" width="40.204" height="26.934" fill="#6bacd0"/>
            <rect x="249.765" y="276.665" width="40.204" height="26.934" fill="#c33d3a"/>
            <rect x="329.806" y="276.665" width="40.204" height="26.934" fill="#f7e4dd"/>
            <rect x="369.97" y="276.582" width="40.204" height="26.934" fill="#d56152"/>
            <rect x="170.292" y="303.406" width="40.204" height="26.934" fill="#f7ede7"/>
            <rect x="249.765" y="303.404" width="40.208" height="26.937" fill="#e88b70"/>
            <rect x="289.786" y="303.404" width="40.203" height="26.937" fill="#fac5ab"/>
            <rect x="369.97" y="303.323" width="40.204" height="26.934" fill="#d05549"/>
            <rect x="130.53" y="330.119" width="40.204" height="26.934" fill="#e78468"/>
            <rect x="249.765" y="330.119" width="40.204" height="26.934" fill="#f6f3ee"/>
            <rect x="289.785" y="330.119" width="40.204" height="26.934" fill="#aa1a29"/>
            <rect x="209.745" y="356.887" width="40.204" height="26.934" fill="#fde3d5"/>
            <rect x="249.765" y="356.887" width="40.204" height="26.934" fill="#f8d5c1"/>
            <rect x="329.806" y="356.887" width="40.204" height="26.934" fill="#be3035"/>
            <rect x="369.97" y="356.804" width="40.204" height="26.934" fill="#fdd0b9"/>
            <g>
              <rect x="170.292" y="89.15" width="40.204" height="26.934" fill="#4792c3"/>
              <rect x="209.745" y="89.15" width="40.204" height="26.934" fill="#3480b9"/>
              <rect x="90.326" y="115.918" width="40.204" height="26.934" fill="#9fcce2"/>
              <rect x="209.745" y="115.918" width="40.204" height="26.934" fill="#438ec0"/>
              <rect x="249.765" y="115.918" width="40.204" height="26.934" fill="#81bbda"/>
              <rect x="90.326" y="142.825" width="40.204" height="26.934" fill="#74b0d3"/>
              <rect x="170.292" y="142.825" width="40.204" height="26.934" fill="#e4eff4"/>
              <rect x="209.745" y="142.825" width="40.204" height="26.934" fill="#317cb6"/>
              <rect x="329.806" y="142.825" width="40.204" height="26.934" fill="#dbebf2"/>
              <rect x="90.326" y="169.537" width="40.204" height="26.934" fill="#c8e0ed"/>
              <rect x="130.53" y="169.537" width="40.204" height="26.934" fill="#d9e8f1"/>
              <rect x="170.292" y="169.537" width="40.204" height="26.934" fill="#599fca"/>
              <rect x="209.745" y="169.537" width="40.204" height="26.934" fill="#87beda"/>
              <rect x="90.326" y="196.306" width="40.204" height="26.934" fill="#4791c3"/>
              <rect x="170.292" y="196.306" width="40.204" height="26.934" fill="#77b4d5"/>
              <rect x="329.806" y="196.306" width="40.204" height="26.934" fill="#c3dfee"/>
              <rect x="130.53" y="223.184" width="40.204" height="26.934" fill="#3c86bc"/>
              <rect x="209.745" y="223.184" width="40.204" height="26.934" fill="#5fa4cc"/>
              <rect x="329.806" y="223.184" width="40.204" height="26.934" fill="#d6e8f1"/>
              <rect x="90.326" y="249.897" width="40.204" height="26.934" fill="#a2cde3"/>
              <rect x="130.53" y="249.897" width="40.204" height="26.934" fill="#5aa0c9"/>
              <rect x="209.745" y="249.897" width="40.204" height="26.934" fill="#b7d7e9"/>
              <rect x="289.785" y="249.897" width="40.204" height="26.934" fill="#d6e7f0"/>
              <rect x="170.292" y="276.665" width="40.204" height="26.934" fill="#84bbd9"/>
              <rect x="209.745" y="276.665" width="40.204" height="26.934" fill="#b5d6e7"/>
              <rect x="289.785" y="276.665" width="40.204" height="26.934" fill="#e4ecf2"/>
              <rect x="90.326" y="303.406" width="40.204" height="26.934" fill="#7fb7d6"/>
              <rect x="130.53" y="303.406" width="40.204" height="26.934" fill="#4d96c5"/>
              <rect x="209.745" y="303.406" width="40.204" height="26.934" fill="#c5d6df"/>
              <rect x="329.806" y="303.406" width="40.204" height="26.934" fill="#dfeaef"/>
              <rect x="90.326" y="330.119" width="40.204" height="26.934" fill="#b3d6e7"/>
              <rect x="170.292" y="330.119" width="40.204" height="26.934" fill="#e3ecf0"/>
              <rect x="209.745" y="330.119" width="40.204" height="26.934" fill="#88bdda"/>
              <rect x="329.806" y="330.119" width="40.204" height="26.934" fill="#d0dfe9"/>
              <rect x="369.97" y="330.036" width="40.204" height="26.934" fill="#88c0dd"/>
              <rect x="90.326" y="356.887" width="40.204" height="26.934" fill="#4892c4"/>
              <rect x="130.53" y="356.887" width="40.204" height="26.934" fill="#d6eaf4"/>
              <rect x="170.292" y="356.887" width="40.204" height="26.934" fill="#4f9bc8"/>
              <rect x="289.785" y="356.887" width="40.204" height="26.934" fill="#f2f8f8"/>
              <rect x="90.326" y="383.765" width="40.204" height="26.934" fill="#7ab5d6"/>
              <rect x="130.53" y="383.765" width="40.204" height="26.934" fill="#75b3d4"/>
              <rect x="170.292" y="383.765" width="40.204" height="26.934" fill="#e4eef3"/>
              <rect x="209.745" y="383.765" width="40.204" height="26.934" fill="#c2ddeb"/>
              <rect x="249.765" y="383.764" width="40.208" height="26.937" fill="#cfe7f3"/>
            </g>
            <rect x="289.786" y="383.764" width="40.203" height="26.937" fill="#f6b79a"/>
            <rect x="329.806" y="383.765" width="40.204" height="26.934" fill="#e7886c"/>
            <rect x="369.97" y="383.682" width="40.204" height="26.934" fill="#c9443f"/>
            <rect x="90.326" y="410.478" width="40.204" height="26.934" fill="#95c6de"/>
            <rect x="130.53" y="410.478" width="40.204" height="26.934" fill="#b7d7e9"/>
            <rect x="170.292" y="410.478" width="40.204" height="26.934" fill="#d2e6ef"/>
            <rect x="209.745" y="410.478" width="40.204" height="26.934" fill="#6cb1d6"/>
            <rect x="249.765" y="410.478" width="40.204" height="26.934" fill="#a01b2e"/>
            <rect x="289.785" y="410.478" width="40.204" height="26.934" fill="#f7eee9"/>
            <rect x="329.806" y="410.478" width="40.204" height="26.934" fill="#f9bfa6"/>
            <rect x="369.97" y="410.395" width="40.204" height="26.934" fill="#fbe3d4"/>
            <rect x="90.326" y="437.246" width="40.204" height="26.934" fill="#d4e9f4"/>
            <rect x="130.53" y="437.246" width="40.204" height="26.934" fill="#84bbd9"/>
            <rect x="170.292" y="437.246" width="40.204" height="26.934" fill="#d2e6ef"/>
            <rect x="209.745" y="437.246" width="40.204" height="26.934" fill="#e3ecf0"/>
            <rect x="249.765" y="437.246" width="40.204" height="26.934" fill="#cb4b44"/>
            <rect x="289.785" y="437.246" width="40.204" height="26.934" fill="#f6b79a"/>
            <rect x="329.806" y="437.246" width="40.204" height="26.934" fill="#feccb3"/>
            <rect x="369.97" y="437.163" width="40.204" height="26.934" fill="#fff8f2"/>
            <g style="mix-blend-mode: color">
              <rect x="170.292" y="89.15" width="40.204" height="26.934" fill="#246eb9"/>
              <rect x="209.745" y="89.15" width="40.204" height="26.934" fill="#246eb9"/>
              <rect x="90.326" y="115.918" width="40.204" height="26.934" fill="#246eb9"/>
              <rect x="209.745" y="115.918" width="40.204" height="26.934" fill="#246eb9"/>
              <rect x="249.765" y="115.918" width="40.204" height="26.934" fill="#246eb9"/>
              <rect x="90.326" y="142.825" width="40.204" height="26.934" fill="#246eb9"/>
              <rect x="170.292" y="142.825" width="40.204" height="26.934" fill="#246eb9"/>
              <rect x="209.745" y="142.825" width="40.204" height="26.934" fill="#246eb9"/>
              <rect x="329.806" y="142.825" width="40.204" height="26.934" fill="#246eb9"/>
              <rect x="90.326" y="169.537" width="40.204" height="26.934" fill="#246eb9"/>
              <rect x="130.53" y="169.537" width="40.204" height="26.934" fill="#246eb9"/>
              <rect x="170.292" y="169.537" width="40.204" height="26.934" fill="#246eb9"/>
              <rect x="209.745" y="169.537" width="40.204" height="26.934" fill="#246eb9"/>
              <rect x="90.326" y="196.306" width="40.204" height="26.934" fill="#246eb9"/>
              <rect x="170.292" y="196.306" width="40.204" height="26.934" fill="#246eb9"/>
              <rect x="329.806" y="196.306" width="40.204" height="26.934" fill="#246eb9"/>
              <rect x="130.53" y="223.184" width="40.204" height="26.934" fill="#246eb9"/>
              <rect x="209.745" y="223.184" width="40.204" height="26.934" fill="#246eb9"/>
              <rect x="329.806" y="223.184" width="40.204" height="26.934" fill="#246eb9"/>
              <rect x="90.326" y="249.897" width="40.204" height="26.934" fill="#246eb9"/>
              <rect x="130.53" y="249.897" width="40.204" height="26.934" fill="#246eb9"/>
              <rect x="209.745" y="249.897" width="40.204" height="26.934" fill="#246eb9"/>
              <rect x="289.785" y="249.897" width="40.204" height="26.934" fill="#246eb9"/>
              <rect x="170.292" y="276.665" width="40.204" height="26.934" fill="#246eb9"/>
              <rect x="209.745" y="276.665" width="40.204" height="26.934" fill="#246eb9"/>
              <rect x="289.785" y="276.665" width="40.204" height="26.934" fill="#246eb9"/>
              <rect x="90.326" y="303.406" width="40.204" height="26.934" fill="#246eb9"/>
              <rect x="130.53" y="303.406" width="40.204" height="26.934" fill="#246eb9"/>
              <rect x="209.745" y="303.406" width="40.204" height="26.934" fill="#246eb9"/>
              <rect x="329.806" y="303.406" width="40.204" height="26.934" fill="#246eb9"/>
              <rect x="90.326" y="330.119" width="40.204" height="26.934" fill="#246eb9"/>
              <rect x="170.292" y="330.119" width="40.204" height="26.934" fill="#246eb9"/>
              <rect x="209.745" y="330.119" width="40.204" height="26.934" fill="#246eb9"/>
              <rect x="329.806" y="330.119" width="40.204" height="26.934" fill="#246eb9"/>
              <rect x="369.97" y="330.036" width="40.204" height="26.934" fill="#246eb9"/>
              <rect x="90.326" y="356.887" width="40.204" height="26.934" fill="#246eb9"/>
              <rect x="130.53" y="356.887" width="40.204" height="26.934" fill="#246eb9"/>
              <rect x="170.292" y="356.887" width="40.204" height="26.934" fill="#246eb9"/>
              <rect x="289.785" y="356.887" width="40.204" height="26.934" fill="#246eb9"/>
              <rect x="90.326" y="383.765" width="40.204" height="26.934" fill="#246eb9"/>
              <rect x="130.53" y="383.765" width="40.204" height="26.934" fill="#246eb9"/>
              <rect x="170.292" y="383.765" width="40.204" height="26.934" fill="#246eb9"/>
              <rect x="209.745" y="383.765" width="40.204" height="26.934" fill="#246eb9"/>
              <rect x="249.765" y="383.764" width="40.208" height="26.937" fill="#246eb9"/>
            </g>
          </g>
        </g>
        <rect x="89.874" y="89.874" width="320.252" height="320.252" fill="none" stroke="#000" stroke-miterlimit="10" stroke-width="4.186px"/>
      </g>
    </g>
  </g>
</svg>